# AST/ASF file generated using VICON BodyLanguage
# -----------------------------------------------
:version 1.10
:name VICON
:units
  mass 1.0
  length 0.45
  angle deg
:documentation
   .ast/.asf automatically generated from VICON data using
   VICON BodyBuilder and BodyLanguage model FoxedUp or BRILLIANT.MOD
:root
   order TX TY TZ RX RY RZ
   axis XYZ
   position 0 0 0  
   orientation 0 0 0 
:bonedata
  begin
     id 1 
     name lhipjoint
     direction 0.627457 -0.725269 0.283342 
     length 2.53237 
     axis 0 0 0  XYZ
  end
  begin
     id 2 
     name lfemur
     direction 0.34202 -0.939693 0  
     length 7.32496  
     axis 0 0 20  XYZ
    dof rx ry rz
    limits (-160.0 20.0)
           (-70.0 70.0)
           (-60.0 70.0)
  end
  begin
     id 3 
     name ltibia
     direction 0.34202 -0.939693 0   
     length 7.69674   
     axis 0 0 20   XYZ
    dof rx
    limits (-10.0 170.0)
  end
  begin
     id 4 
     name lfoot
     direction 0.127289 -0.349722 0.928166   
     length 1.8612   
     axis -90 7.62852e-016 20   XYZ
    dof rx rz
    limits (-45.0 90.0)
           (-70.0 20.0)
  end
  begin
     id 5 
     name ltoes
     direction 1.53561e-011 -4.21864e-011 1   
     length 0.925608   
     axis -90 7.62852e-016 20   XYZ
    dof rx
    limits (-90.0 20.0)
  end
  begin
     id 6 
     name rhipjoint
     direction -0.609094 -0.738725 0.288599   
     length 2.48624  
     axis 0 0 0  XYZ 
  end
  begin
     id 7 
     name rfemur
     direction -0.34202 -0.939693 0   
     length 7.44259   
     axis 0 0 -20   XYZ
    dof rx ry rz
    limits (-160.0 20.0)
           (-70.0 70.0)
           (-70.0 60.0)
  end
  begin
     id 8 
     name rtibia
     direction -0.34202 -0.939693 0   
     length 7.7781   
     axis 0 0 -20   XYZ
    dof rx
    limits (-10.0 170.0)
 end
 begin
     id 9 
     name rfoot
     direction -0.107015 -0.294021 0.949789   
     length 2.14741  
     axis -90 -7.62852e-016 -20   XYZ
    dof rx rz
    limits (-45.0 90.0)
           (-20.0 70.0)
  end
  begin
     id 10 
     name rtoes
     direction -1.53497e-011 -4.21924e-011 1   
     length 1.0706   
     axis -90 -7.62852e-016 -20   XYZ
    dof rx
    limits (-90.0 20.0)
  end
  begin
     id 11 
     name lowerback
     direction -0.0142066 0.998112 -0.0597545   
     length 1.86627   
     axis 0 0 0   XYZ
    dof rx ry rz
    limits (-20.0 45.0)
           (-30.0 30.0)
           (-30.0 30.0)
  end
  begin
     id 12 
     name upperback
     direction 0.00547294 0.999744 0.0219437   
     length 1.86272   
     axis 0 0 0   XYZ
    dof rx ry rz
    limits (-20.0 45.0)
           (-30.0 30.0)
           (-30.0 30.0)
  end
  begin
     id 13 
     name thorax
     direction 0.0116162 0.998704 0.0495538   
     length 1.8703   
     axis 0 0 0   XYZ
    dof rx ry rz
    limits (-20.0 45.0)
           (-30.0 30.0)
           (-30.0 30.0)
  end
  begin
     id 14 
     name lowerneck
     direction -0.0106574 0.998739 0.0490586   
     length 1.8074   
     axis 0 0 0   XYZ
    dof rx ry rz
    limits (-20.0 45.0)
           (-30.0 30.0)
           (-30.0 30.0)
  end
  begin
     id 15 
     name upperneck
     direction 0.030527 0.976587 -0.212944   
     length 1.80681   
     axis 0 0 0   XYZ
    dof rx ry rz
    limits (-20.0 45.0)
           (-30.0 30.0)
           (-30.0 30.0)
  end
  begin
     id 16
     name head
     direction 0.00869225 0.997035 -0.0764531  
     length 1.8313  
     axis 0 0 0   XYZ
    dof rx ry rz
    limits (-20.0 45.0)
           (-30.0 30.0)
           (-30.0 30.0)
  end
  begin
     id 17 
     name lclavicle
     direction 0.915958 0.399447 0.0382386  
     length 3.78965  
     axis 0 0 0   XYZ
    dof ry rz
    limits (-20.0 10.0)
           (0.0 20.0)
  end
  begin
     id 18 
     name lhumerus
     direction 1 -4.48967e-011 3.19303e-027   
     length 4.78095   
     axis -180 -30 -90   XYZ
    dof rx ry rz
    limits (-60.0 90.0)
           (-90.0 90.0)
           (-90.0 90.0)
  end
  begin
     id 19
     name lradius
     direction 1 -4.48967e-011 -3.77974e-027   
     length 3.58615   
     axis -180 -30 -90   XYZ
    dof rx
    limits (-10.0 170.0)
  end
  begin
     id 20
     name lwrist
     direction 1 -4.48927e-011 1.2807e-027   
     length 1.79307   
     axis 1.91374e-015 90 90   XYZ
    dof ry
    limits (-180.0 0.0)
 end
  begin
     id 21 
     name lhand
     direction 1 -4.49036e-011 2.5614e-027   
     length 0.659812   
     axis -1.63439e-015 90 90   XYZ
    dof rx rz
    limits (-90.0 90.0)
           (-45.0 45.0)
  end
  begin
     id 22 
     name lfingers
     direction 1 -4.49052e-011 5.1228e-027   
     length 0.531957   
     axis -3.26879e-015 90 90   XYZ
    dof rx
    limits (0.0 90.0)
  end
  begin
     id 23
     name lthumb
     direction 0.707107 -6.35012e-011 0.707107   
     length 0.763787   
     axis -90 45 2.85299e-015   XYZ
    dof rx rz
    limits (-45.0 45.0)
           (-45.0 45.0)
  end
  begin
     id 24 
     name rclavicle
     direction -0.895351 0.435135 0.0948887   
     length 3.70497  
     axis 0 0 0   XYZ 
    dof ry rz
    limits (-10.0 20.0)
           (-20.0 0.0)
  end
  begin
     id 25 
     name rhumerus
     direction -1 -4.48971e-011 2.38946e-027  
     length 4.48913   
     axis -180 30 90   XYZ
    dof rx ry rz
    limits (-90.0 60.0)
           (-90.0 90.0)
           (-90.0 90.0)
  end
  begin
     id 26 
     name rradius
     direction -1 -4.4895e-011 4.38668e-027   
     length 3.7051   
     axis -180 30 90   XYZ
    dof rx
    limits (-10.0 170.0)
  end
  begin
     id 27 
     name rwrist
     direction -1 -4.49007e-011 1.2807e-027   
     length 1.85255   
     axis 1.91374e-015 -90 -90   XYZ
    dof ry
    limits (-180.0 0.0)
  end
  begin
     id 28
     name rhand
     direction -1 -4.48851e-011 2.5614e-027   
     length 0.449136   
     axis -1.63439e-015 -90 -90   XYZ
    dof rx rz
    limits (-90.0 90.0)
           (-45.0 45.0)
  end
  begin
     id 29
     name rfingers
     direction -1 -4.49128e-011 5.1228e-027   
     length 0.362105   
     axis -3.26879e-015 -90 -90   XYZ
    dof rx
    limits (0.0 90.0)
  end
  begin
     id 30
     name rthumb
     direction -0.707107 -6.34851e-011 0.707107   
     length 0.519912   
     axis -90 -45 -2.85299e-015   XYZ
    dof rx rz
    limits (-45.0 45.0)
           (-45.0 45.0)
  end
:hierarchy
  begin
    root lhipjoint rhipjoint lowerback
    lhipjoint lfemur
    lfemur ltibia
    ltibia lfoot
    lfoot ltoes
    rhipjoint rfemur
    rfemur rtibia
    rtibia rfoot
    rfoot rtoes
    lowerback upperback
    upperback thorax
    thorax lowerneck lclavicle rclavicle
    lowerneck upperneck
    upperneck head
    lclavicle lhumerus
    lhumerus lradius
    lradius lwrist
    lwrist lhand lthumb
    lhand lfingers
    rclavicle rhumerus
    rhumerus rradius
    rradius rwrist
    rwrist rhand rthumb
    rhand rfingers
  end

#!OML:ASF I:\Actors\actors\Patient Classification 2\Patient 1\Session 1\actor1.ASF
:FULLY-SPECIFIED
:DEGREES
1
root -0.628547 18.659 5.85985 2.21525 -3.04766 0.458499
lowerback 2.84356 0.768142 -2.6504
upperback -3.92821 0.868533 -0.205565
thorax -5.70543 0.537864 1.20427
lowerneck -12.5834 -2.59033 -2.32549
upperneck 24.8258 -4.27875 4.33236
head 10.1203 -1.70714 1.38755
rclavicle -3.73964e-015 -3.37934e-015
rhumerus -51.5641 -4.15653 -84.0345
rradius 45.066
rwrist 7.03265
rhand -6.99795 -43.627
rfingers 7.12502
rthumb 18.8728 -72.7314
lclavicle -3.73964e-015 -3.37934e-015
lhumerus -44.6306 2.48198 88.1312
lradius 38.0325
lwrist -4.95059
lhand -6.31096 -26.9982
lfingers 7.12502
lthumb 19.5334 2.04059
rfemur 0 0 0
rtibia 0
rfoot 0 0
rtoes 0
lfemur -2.94147 -6.46837 -14.9215
ltibia 19.5697
lfoot -22.5121 13.7952
ltoes -55.9973
2
root -0.627926 18.6591 5.8618 2.24208 -3.07249 0.450909
lowerback 2.83627 0.76941 -2.61198
upperback -3.95439 0.871676 -0.215505
thorax -5.72802 0.538033 1.17204
lowerneck -12.5491 -2.59939 -2.3316
upperneck 24.8464 -4.29398 4.34045
head 10.1221 -1.71417 1.39
rclavicle -7.25564e-015 -4.17448e-015
rhumerus -51.5954 -4.17062 -84.0618
rradius 45.0844
rwrist 7.08272
rhand -6.87845 -43.7496
rfingers 7.12502
rthumb 18.9877 -72.8428
lclavicle -7.25564e-015 -4.17448e-015
lhumerus -44.7322 2.42772 88.19
lradius 38.0966
lwrist -4.94388
lhand -6.24467 -26.4912
lfingers 7.12502
lthumb 19.5971 2.5411
rfemur 0 0 0
rtibia 0
rfoot 0 0
rtoes 0
lfemur -2.95834 -6.498 -14.9217
ltibia 19.5731
lfoot -22.5557 13.831
ltoes -55.9866
3
root -0.627162 18.6595 5.86446 2.26335 -3.09712 0.455097
lowerback 2.81578 0.778215 -2.58406
upperback -3.97332 0.884377 -0.234555
thorax -5.73585 0.542929 1.13571
lowerneck -12.5349 -2.62366 -2.4144
upperneck 24.9162 -4.35002 4.48063
head 10.1523 -1.73121 1.44706
rclavicle 7.92654e-015 -1.19271e-015
rhumerus -51.6428 -4.20409 -84.0933
rradius 45.1071
rwrist 7.09927
rhand -6.90588 -43.7344
rfingers 7.12502
rthumb 18.9613 -72.8301
lclavicle 7.92654e-015 -1.19271e-015
lhumerus -44.8213 2.37152 88.2278
lradius 38.1692
lwrist -5.0257
lhand -6.15204 -26.1969
lfingers 7.12502
lthumb 19.6862 2.82631
rfemur 0 0 0
rtibia 0
rfoot 0 0
rtoes 0
lfemur -2.96404 -6.48262 -14.9335
ltibia 19.5668
lfoot -22.5711 13.8313
ltoes -55.9848
4
root -0.626934 18.6599 5.86783 2.28772 -3.09114 0.463656
lowerback 2.75618 0.774418 -2.58248
upperback -3.99405 0.880597 -0.240449
thorax -5.72321 0.540915 1.12959
lowerneck -12.4187 -2.64538 -2.5464
upperneck 24.9233 -4.39801 4.65391
head 10.1416 -1.74778 1.52598
rclavicle -2.65874e-015 3.18055e-015
rhumerus -51.7066 -4.18888 -84.1023
rradius 45.1263
rwrist 7.14263
rhand -6.85247 -43.5011
rfingers 7.12502
rthumb 19.0127 -72.5918
lclavicle -2.65874e-015 3.18055e-015
lhumerus -44.9144 2.30497 88.2875
lradius 38.2375
lwrist -4.96659
lhand -6.11156 -26.1277
lfingers 7.12502
lthumb 19.7251 2.89154
rfemur 0 0 0
rtibia 0
rfoot 0 0
rtoes 0
lfemur -2.96664 -6.48526 -14.9459
ltibia 19.5467
lfoot -22.5237 13.8363
ltoes -55.9892
5
root -0.627031 18.6608 5.87091 2.34021 -3.06848 0.478377
lowerback 2.66844 0.760897 -2.59604
upperback -4.01768 0.863997 -0.242592
thorax -5.69732 0.533181 1.13717
lowerneck -12.2861 -2.64035 -2.57578
upperneck 24.8832 -4.38961 4.67558
head 10.1022 -1.74686 1.54083
rclavicle 2.168e-014 -4.17448e-015
rhumerus -51.7333 -4.16909 -84.1004
rradius 45.1196
rwrist 7.18948
rhand -6.77404 -43.3881
rfingers 7.12502
rthumb 19.0881 -72.4715
lclavicle 2.168e-014 -4.17448e-015
lhumerus -44.9769 2.22804 88.3703
lradius 38.3011
lwrist -4.74508
lhand -6.13378 -26.4065
lfingers 7.12502
lthumb 19.7037 2.61488
rfemur 0 0 0
rtibia 0
rfoot 0 0
rtoes 0
lfemur -2.99877 -6.53156 -14.9606
ltibia 19.519
lfoot -22.5186 13.8517
ltoes -55.9021
6
root -0.626778 18.6615 5.87317 2.40038 -3.05923 0.529116
lowerback 2.60438 0.74742 -2.63965
upperback -4.02978 0.844565 -0.25936
thorax -5.6731 0.524877 1.14638
lowerneck -12.2939 -2.6199 -2.52701
upperneck 24.8994 -4.35494 4.60879
head 10.1053 -1.73356 1.51334
rclavicle -7.66563e-015 9.54166e-015
rhumerus -51.7083 -4.16719 -84.1336
rradius 45.0972
rwrist 7.08569
rhand -6.94146 -43.4974
rfingers 7.12502
rthumb 18.9271 -72.5966
lclavicle -7.66563e-015 9.54166e-015
lhumerus -44.9721 2.20147 88.4218
lradius 38.3318
lwrist -4.60576
lhand -6.2305 -27.037
lfingers 7.12502
lthumb 19.6108 1.99392
rfemur 0 0 0
rtibia 0
rfoot 0 0
rtoes 0
lfemur -3.04847 -6.58476 -15.0161
ltibia 19.4951
lfoot -22.5725 13.882
ltoes -55.8543
7
root -0.626198 18.6613 5.87474 2.42901 -3.05569 0.547346
lowerback 2.58784 0.733696 -2.65091
upperback -4.01079 0.826305 -0.261955
thorax -5.64303 0.515745 1.15177
lowerneck -12.3959 -2.60421 -2.48024
upperneck 24.9249 -4.32404 4.53572
head 10.1301 -1.7213 1.48255
rclavicle 8.64713e-015 -8.54774e-015
rhumerus -51.632 -4.15566 -84.1648
rradius 45.0784
rwrist 7.06982
rhand -6.99454 -43.5655
rfingers 7.12502
rthumb 18.8761 -72.6696
lclavicle 8.64713e-015 -8.54774e-015
lhumerus -44.892 2.2589 88.4391
lradius 38.2942
lwrist -4.62648
lhand -6.3394 -27.3343
lfingers 7.12502
lthumb 19.5061 1.70723
rfemur 0 0 0
rtibia 0
rfoot 0 0
rtoes 0
lfemur -3.06899 -6.6224 -15.0374
ltibia 19.4806
lfoot -22.6202 13.8872
ltoes -55.8547
8
root -0.626271 18.6611 5.8754 2.44885 -3.05652 0.526642
lowerback 2.59442 0.735503 -2.62191
upperback -3.98576 0.83053 -0.261163
thorax -5.62005 0.516148 1.13618
lowerneck -12.4889 -2.60885 -2.44427
upperneck 24.9343 -4.32446 4.48411
head 10.1495 -1.7224 1.45721
rclavicle 1.50331e-014 -2.78299e-015
rhumerus -51.5605 -4.18509 -84.1655
rradius 45.0721
rwrist 7.23887
rhand -6.79268 -43.5798
rfingers 7.12502
rthumb 19.0702 -72.6649
lclavicle 1.50331e-014 -2.78299e-015
lhumerus -44.7961 2.29641 88.4605
lradius 38.2503
lwrist -4.67533
lhand -6.25366 -26.9675
lfingers 7.12502
lthumb 19.5885 2.06566
rfemur 0 0 0
rtibia 0
rfoot 0 0
rtoes 0
lfemur -3.08331 -6.63241 -15.0099
ltibia 19.4793
lfoot -22.6554 13.871
ltoes -55.8473
